<svg xmlns="http://www.w3.org/2000/svg" width="10" height="19" viewBox="0 0 10 19"><defs></defs><g transform="translate(-208 -3063)"><g transform="translate(208 3063)"><path d="M7.051,19H2.008V10.165H0V5.8H1.945A5.632,5.632,0,0,1,3.069,1.388,4.739,4.739,0,0,1,6.462,0H10V4.211H7.222A4.088,4.088,0,0,0,7.036,5.8H9.979v4.365H7.051ZM3.118,17.973H5.941V9.137H8.868V6.827H5.944l-.012-.5c-.032-1.4,0-2.591.745-3.054l.141-.087H8.89V1.027h-2.4A3.587,3.587,0,0,0,3.916,2.051C3.145,2.894,2.872,4.31,3.1,6.258l.068.57H1.11V9.139H3.118Z"/></g><path class="a" d="M210.008,3082v-8.835H208V3068.8h1.945a5.633,5.633,0,0,1,1.124-4.412,4.741,4.741,0,0,1,3.393-1.387H218v4.211h-2.778a4.1,4.1,0,0,0-.185,1.588h2.943v4.365h-2.929V3082Zm-.9-9.861h2.008v8.834h2.823v-8.836h2.927v-2.309h-2.924l-.012-.5c-.032-1.4,0-2.591.745-3.055l.141-.086h2.072v-2.157h-2.4a3.589,3.589,0,0,0-2.579,1.024c-.771.844-1.044,2.259-.813,4.207l.068.571H209.11Z"/></g></svg>
