<svg xmlns="http://www.w3.org/2000/svg" width="55" height="60" viewBox="0 0 55 60"><defs></defs><g transform="translate(-133 -2747)"><g transform="translate(133 2747)"><path d="M51.9,12.179H45a7.792,7.792,0,0,0,.449-8.113A7.637,7.637,0,0,0,40.882.326a7.557,7.557,0,0,0-5.846.612C31.458,2.894,28.921,7.053,27.5,9.955c-1.422-2.9-3.959-7.061-7.535-9.017A7.655,7.655,0,0,0,9.555,4.066a7.819,7.819,0,0,0,.456,8.113h-6.9A3.123,3.123,0,0,0,0,15.314V24.7a3.123,3.123,0,0,0,3.106,3.133h.823V53.965A6.014,6.014,0,0,0,9.908,60H45.092a6.013,6.013,0,0,0,5.977-6.036V27.836H51.9A3.121,3.121,0,0,0,55,24.7V15.314A3.123,3.123,0,0,0,51.9,12.179ZM36.168,3.05a5.274,5.274,0,0,1,7.183,2.16,5.355,5.355,0,0,1,.42,4.074,5.287,5.287,0,0,1-2.14,2.9H29.1C30.221,9.652,32.674,4.961,36.168,3.05ZM11.648,5.209A5.284,5.284,0,0,1,18.833,3.05c3.494,1.91,5.947,6.6,7.067,9.129H13.371A5.372,5.372,0,0,1,11.648,5.209ZM26.311,27.836V41.517h-20V27.836Zm-20,26.129V43.919h20V57.6H9.908A3.621,3.621,0,0,1,6.308,53.965ZM45.092,57.6H28.69V43.919h20V53.965A3.62,3.62,0,0,1,45.092,57.6Zm3.6-16.081h-20V27.836h20ZM52.621,24.7a.729.729,0,0,1-.725.733H3.106a.73.73,0,0,1-.727-.733V15.314a.739.739,0,0,1,.727-.733H51.9a.738.738,0,0,1,.725.733Z"/></g><path fill="#ffffff" d="M142.907,2807a6.014,6.014,0,0,1-5.979-6.035v-26.129h-.823A3.122,3.122,0,0,1,133,2771.7v-9.39a3.123,3.123,0,0,1,3.106-3.134h6.9a7.819,7.819,0,0,1-.456-8.114,7.656,7.656,0,0,1,10.41-3.128c3.577,1.956,6.114,6.115,7.536,9.017,1.42-2.9,3.957-7.061,7.536-9.017a7.644,7.644,0,0,1,10.409,3.128,7.789,7.789,0,0,1-.449,8.114h6.9a3.123,3.123,0,0,1,3.1,3.134v9.39a3.121,3.121,0,0,1-3.1,3.133h-.827v26.129a6.013,6.013,0,0,1-5.977,6.035Zm18.783-2.4h16.4a3.62,3.62,0,0,0,3.6-3.633v-10.046h-20Zm-22.382-3.633a3.62,3.62,0,0,0,3.6,3.633h16.4v-13.679h-20Zm22.382-12.447h20v-13.682h-20Zm-22.382,0h20v-13.682h-20Zm43.574-16.083H184.9a.728.728,0,0,0,.724-.732v-9.39a.739.739,0,0,0-.724-.733h-48.79a.74.74,0,0,0-.727.733v9.39a.73.73,0,0,0,.727.732H182.88Zm-13.715-22.385c-3.493,1.911-5.947,6.6-7.067,9.13h12.531a5.286,5.286,0,0,0,2.14-2.9,5.353,5.353,0,0,0-.42-4.074,5.265,5.265,0,0,0-7.184-2.16Zm-24.52,2.159a5.374,5.374,0,0,0,1.723,6.971H158.9c-1.12-2.528-3.574-7.219-7.068-9.13a5.233,5.233,0,0,0-2.514-.643A5.3,5.3,0,0,0,144.647,2752.209Z"/></g></svg>