<svg xmlns="http://www.w3.org/2000/svg" width="27.002" height="34" viewBox="0 0 27.002 34"><defs></defs><g transform="translate(-273 -3126)"><g transform="translate(273 3126)"><path d="M13.649.017,13.5,0,0,1.408V26l13.5,8L26.96,26.031,27,26.006V1.408ZM25.073,12.1,13.523,5.32v-.1l-.087.05-.088-.056v.109L1.929,12.086V3.139L13.5,1.93l11.57,1.209V12.1ZM13.433,6.769l11.542,6.7L20.487,16.1l-7.107-4.21L13.365,13.3l5.916,3.5-.862.506-5.04-2.984-.015,1.411L17.2,18l-.784.522L13.38,16.744l-.015,1.409,1.857,1.088-1.8,1.078L2.038,13.586Zm-11.5,8.318L13.364,21.86l.017,1.041-7.96-4.716L5.406,19.6l8,4.782.019,1.073L5.43,20.726l-.013,1.41,8.038,4.81.047.024,8.159-4.859-.011-5.163,3.422-2.031v9.995L13.5,31.766,1.929,24.912Z"/></g><path class="a" d="M273,3152v-24.6L286.5,3126l.147.017L300,3127.408v24.6l-.042.025L286.5,3160Zm1.93-1.093,11.572,6.854,11.571-6.854v-9.995l-3.423,2.031.012,5.163-8.159,4.859-.047-.024-8.038-4.811.013-1.41,7.991,4.728-.019-1.073-8-4.783.015-1.412,7.96,4.715-.017-1.04-11.434-6.773Zm.109-11.326,11.38,6.733,1.8-1.078-1.858-1.088.015-1.408,3.037,1.782.783-.522-3.835-2.269.015-1.411,5.04,2.984.861-.506-5.917-3.5.015-1.411,7.107,4.209,4.488-2.633-11.543-6.7Zm11.485-8.267,11.55,6.775v-8.956l-11.57-1.209-11.573,1.209v8.947l11.417-6.767v-.109l.088.056.087-.05Z"/></g></svg>