<svg xmlns="http://www.w3.org/2000/svg" width="16" height="16.01" viewBox="0 0 16 16.01"><defs></defs><g transform="translate(-152 -3065)"><g transform="translate(152 3065)"><path class="a" d="M11.825,1.043a3.136,3.136,0,0,1,3.131,3.133v7.657a3.135,3.135,0,0,1-3.131,3.132H4.174a3.135,3.135,0,0,1-3.131-3.132V4.176A3.135,3.135,0,0,1,4.174,1.044h7.651m0-1.044H4.174A4.186,4.186,0,0,0,0,4.176v7.657a4.187,4.187,0,0,0,4.174,4.176h7.653A4.188,4.188,0,0,0,16,11.832V4.176A4.188,4.188,0,0,0,11.825,0Z"/><path class="a" d="M8,4.927A3.083,3.083,0,1,1,4.918,8.009,3.085,3.085,0,0,1,8,4.927M8,3.883a4.126,4.126,0,1,0,4.124,4.126A4.127,4.127,0,0,0,8,3.883Z"/><circle class="a" cx="0.933" cy="0.933" r="0.933" transform="translate(11.34 2.811)"/></g><path class="b" d="M156.174,3081.01a4.187,4.187,0,0,1-4.174-4.176v-7.657a4.187,4.187,0,0,1,4.174-4.177h7.651a4.188,4.188,0,0,1,4.175,4.177v7.655a4.189,4.189,0,0,1-4.173,4.178Zm-3.131-11.833v7.657a3.135,3.135,0,0,0,3.131,3.131h7.651a3.135,3.135,0,0,0,3.131-3.131v-7.657a3.136,3.136,0,0,0-3.131-3.133h-7.651A3.136,3.136,0,0,0,153.043,3069.177Zm2.83,3.832a4.126,4.126,0,1,1,4.127,4.125A4.128,4.128,0,0,1,155.873,3073.009Zm1.045,0a3.082,3.082,0,1,0,3.082-3.083A3.085,3.085,0,0,0,156.918,3073.009Zm6.422-4.265a.933.933,0,1,1,.933.933A.932.932,0,0,1,163.34,3068.744Z"/></g></svg>
