<svg xmlns="http://www.w3.org/2000/svg" width="173" height="58" viewBox="0 0 173 58"><defs></defs><g transform="translate(0 0)"><path fill="#fdc305" d="M59.879,22.093a25.5,25.5,0,0,0-33.5-13.921,26.024,26.024,0,0,0-13.756,33.9A25.64,25.64,0,0,0,32.5,57.718c-.579-2.116-1.163-4.453-1.692-6.937a32.6,32.6,0,0,0,4.769,2.585l-.02.01s.119,2.182.279,4.62a25.174,25.174,0,0,0,5.347-.484,2.042,2.042,0,0,1,.012-.771c.286-1.884,1.092-5.3,1.247-7.5a15.432,15.432,0,0,0,2.9-3.757l0,.037c-.017.146-.036.292-.054.439-.554,4.315-1.7,8.918-2.4,10.191a5.81,5.81,0,0,1-.831,1.167,25.507,25.507,0,0,0,4.068-1.332A26.023,26.023,0,0,0,59.879,22.093ZM58.4,25.924c-.434.439-1.35.732-1.494-.585s-.193-2.243-.193-2.243-1.927-3.461-2.65-3.51-5.83,3.51-7.18,5.023c-1.164,1.3-1.4,1.219-1.4,3.51,0,1.734.22,8.263.1,13.264h0L37.44,43.575a64.139,64.139,0,0,1-7.806,1.8l-1.011-5.9h0l-.039-.006h0l-.034-.005-.049-.006h0l-2.57-13.342s-3.807-1.462-5.2-1.853a3.706,3.706,0,0,0-4.048.633,5.174,5.174,0,0,0-1.734,3.9,7.035,7.035,0,0,1,.482,1.462c.048.488-1.205.439-2.024.439s-.916-1.462-.289-3.17a24.065,24.065,0,0,1,1.927-3.754,12.07,12.07,0,0,1,2.072-2.926s.145-.341,1.253-.244,7.276.439,7.276.439l.053-2.3A142.579,142.579,0,0,1,45.93,17.394q-.015.922-.057,1.85a22.419,22.419,0,0,1,8.143-2,.909.909,0,0,1,.771.39c.337.439,2.409,3.023,2.65,3.414a28.343,28.343,0,0,1,1.831,3.072A6.4,6.4,0,0,1,58.4,25.924Z"/><path fill="#f06351" d="M56.45,19.743c.474.606.888,1.142.987,1.3a28.343,28.343,0,0,1,1.831,3.072,6.4,6.4,0,0,1-.867,1.8c-.434.439-1.35.732-1.494-.585s-.193-2.243-.193-2.243-1.927-3.461-2.65-3.51-5.83,3.51-7.18,5.023c-1.164,1.3-1.4,1.219-1.4,3.51,0,1.52.17,6.729.129,11.36,1.81.21,4.466.717,5.268,1.9,0,0-.289-7.265,7.806-3.462,0,0,.288-9.9,11.468-7.363A43.9,43.9,0,0,0,56.45,19.743Z"/><path fill="#f06351" d="M45.93,17.394A92.567,92.567,0,0,0,44.523.665s-.145-1.316-.867-.244a14.526,14.526,0,0,0-1.205,4,69.828,69.828,0,0,0-12.818.34c-.819-2.78-2.216-4-2.891-3.705s-.722,3.365-.722,3.365l-.332,14.326A142.579,142.579,0,0,1,45.93,17.394Z"/><path fill="#e55645" d="M45.347,45.489c.127-1.077.2-2.514.239-4.108L37.44,43.575a64.139,64.139,0,0,1-7.806,1.8l1.109,5.071.069.33a32.6,32.6,0,0,0,4.769,2.585,42.541,42.541,0,0,0,6.87-4.183l-.005.063A15.432,15.432,0,0,0,45.347,45.489Z"/><path d="M32,14.221c-.045-.092,1.026.691,1.412.935s.612.43.612.6-.265.341-.626.341-.916-.122-.964-.268c0,0,.6-.024.94-.024h.289A8.336,8.336,0,0,1,32,14.221Z"/><path d="M39.5,14.336s-1.051,1.295-1.09,1.354-.167.347.186.3a7.908,7.908,0,0,0,1.223-.287c.107-.06.069-.2-.118-.178-.206.022-.685.049-.988.109l.844-1.282S39.581,14.229,39.5,14.336Z"/><path d="M36.353,20.523A2.324,2.324,0,0,0,37.446,19.5c.28-.668.036-.927-.443-.994a2.426,2.426,0,0,0-1.743.345c-.4.375-.343.741-.054.969A5,5,0,0,0,36.353,20.523Z"/><path fill="#f06351" d="M35.947,21.794a2,2,0,0,1-.461.6,1.714,1.714,0,0,1-1.021.393,2.147,2.147,0,0,1-1.457-.452,2.1,2.1,0,0,1-.534-.449.938.938,0,0,0-.358-.256s.75,4.164,2.576,4.822,2.151-.761,2.208-1.151a5.731,5.731,0,0,0-.824-3.274C36.062,21.721,36.046,21.927,35.947,21.794Z"/><path d="M34.3,22.945h-.015A3.466,3.466,0,0,1,31.942,21.5a.147.147,0,0,1,.031-.2.144.144,0,0,1,.2.033,3.244,3.244,0,0,0,2.112,1.32H34.3a2.089,2.089,0,0,0,1.634-1.005l.143-.192.1.216c0,.008.375.767.992.807.5.032,1.056-.418,1.622-1.3a.144.144,0,0,1,.2-.043.146.146,0,0,1,.042.2c-.635.99-1.269,1.471-1.884,1.431a1.549,1.549,0,0,1-1.121-.776A2.252,2.252,0,0,1,34.3,22.945Z"/><path fill="#111111" d="M41.229,29.691,38.1,31.015l1.15-5.7-7.5,9.878,3.133-1.324-1.15,5.7ZM33.842,33.56l4.131-5.473-.806,4.067,1.966-.831L35,36.8l.806-4.068Z"/><path fill="#f06351" d="M45.873,19.224A58.751,58.751,0,0,0,40.79,24.5a31.858,31.858,0,0,1-5.313,4.953c-.217-.535-1.627-1.533-1.627-1.533s-3.143-2.174-5.2-3.884a33.314,33.314,0,0,1-3.138-3.059l-2.014-.111a22.621,22.621,0,0,0,12.018,8.943c.867-.143,3.288-1.889,5.1-3.314a57.969,57.969,0,0,0,5.962-5.987,6.171,6.171,0,0,0,1.141-2C46.6,18.894,45.873,19.224,45.873,19.224Z"/><path fill="#f06351" d="M25.924,26.119s-3.807-1.462-5.2-1.853a3.706,3.706,0,0,0-4.048.633,5.174,5.174,0,0,0-1.734,3.9,7.035,7.035,0,0,1,.482,1.462c.048.488-1.205.439-2.024.439s-.916-1.462-.289-3.17a24.065,24.065,0,0,1,1.927-3.754C9.589,26.655,0,33.287,0,33.287a45.344,45.344,0,0,1,8.192.244c5.252.537,4.963,4.73,4.963,4.73a37.76,37.76,0,0,1,5.637-1.121c2.121-.146,2.266,2.145,2.266,2.145l.529,3.9a18.873,18.873,0,0,1,2.65-2.389,6.012,6.012,0,0,1,4.386-1.316h0Z"/><path fill="#111111" d="M89.941,37.726a6.066,6.066,0,0,1-1-3.75V28.552a6.132,6.132,0,0,1,.988-3.788,5.172,5.172,0,0,1,6.635-.149,4.909,4.909,0,0,1,.952,3.245v1.271H94.562v-1.4a7.254,7.254,0,0,0-.065-1.084,1.211,1.211,0,0,0-.332-.683,1.112,1.112,0,0,0-.823-.271,1.045,1.045,0,0,0-1.073.543,4.093,4.093,0,0,0-.24,1.589v6.883a3.524,3.524,0,0,0,.277,1.589,1.063,1.063,0,0,0,1.035.523.959.959,0,0,0,1-.533,4.32,4.32,0,0,0,.222-1.58V33.228h2.957v1.253a5.283,5.283,0,0,1-.942,3.357,3.925,3.925,0,0,1-3.253,1.188A4.008,4.008,0,0,1,89.941,37.726Z"/><path fill="#111111" d="M101.548,23.669h3.382l2.883,15.151H105l-.555-3.329h-2.365l-.573,3.329H98.646Zm2.606,9.914-.906-6.1-.887,6.1Z"/><path fill="#111111" d="M109.976,25.952h-2.31V23.669h7.652v2.283h-2.274V38.82h-3.068Z"/><path fill="#444444" d="M121.324,23.669h5.8v1.572h-3.716v5.012h3.013v1.5h-3.013V37.3h3.753V38.82h-5.84Z"/><path fill="#444444" d="M128.846,23.669h1.423l4.25,10.063V23.669h1.738V38.82h-1.332L130.62,28.476V38.82h-1.774Z"/><path fill="#444444" d="M138.6,23.669h5.8v1.572h-3.715v5.012H143.7v1.5h-3.012V37.3h3.752V38.82H138.6Z"/><path fill="#444444" d="M146.127,23.669h3.013a4.934,4.934,0,0,1,3.336.945,3.931,3.931,0,0,1,1.063,3.076q0,2.918-1.849,3.536l2.126,7.594H151.8l-1.958-7.108h-1.627V38.82h-2.088ZM149.01,30.2a2.79,2.79,0,0,0,1.931-.542,2.635,2.635,0,0,0,.582-1.964,4.244,4.244,0,0,0-.2-1.468,1.4,1.4,0,0,0-.72-.786,3.4,3.4,0,0,0-1.46-.253h-.925V30.2Z"/><path fill="#444444" d="M156.347,37.706a6.763,6.763,0,0,1-.906-3.862V28.776a9.72,9.72,0,0,1,.361-2.89,3.231,3.231,0,0,1,1.239-1.739,4.176,4.176,0,0,1,2.411-.608,3.735,3.735,0,0,1,2.985,1.066,5.066,5.066,0,0,1,.915,3.348v.561h-1.959v-.467a8.279,8.279,0,0,0-.129-1.674,1.417,1.417,0,0,0-.545-.888,2.1,2.1,0,0,0-1.229-.3,1.819,1.819,0,0,0-1.294.4,1.89,1.89,0,0,0-.545,1.075,10.534,10.534,0,0,0-.121,1.8v5.611a5.52,5.52,0,0,0,.416,2.5,2.013,2.013,0,0,0,3.2-.066,5.943,5.943,0,0,0,.435-2.636V32.816h-1.9v-1.5h3.789v7.5h-1.313l-.2-1.74a2.636,2.636,0,0,1-2.662,1.926A3.328,3.328,0,0,1,156.347,37.706Z"/><path fill="#444444" d="M167.788,33.47l-3.234-9.8h1.94l2.292,7.313,2.255-7.313H173l-3.217,9.8v5.35h-2Z"/></g></svg>
