<svg xmlns="http://www.w3.org/2000/svg" width="202" height="59" viewBox="0 0 202 59"><defs></defs><path fill="#fdc305" d="M59.887,23.8a25.684,25.684,0,0,0-33.5-13.646,25.358,25.358,0,0,0,6.123,48.568c-.58-2.073-1.163-4.364-1.692-6.8a32.8,32.8,0,0,0,4.769,2.534l-.02.01s.119,2.14.279,4.529a25.635,25.635,0,0,0,5.347-.474,1.97,1.97,0,0,1,.012-.756c.287-1.847,1.093-5.194,1.249-7.348a15.189,15.189,0,0,0,2.9-3.682l0,.036c-.018.143-.036.286-.055.43-.554,4.231-1.7,8.743-2.4,9.991a5.694,5.694,0,0,1-.83,1.144,26.013,26.013,0,0,0,4.068-1.305A25.327,25.327,0,0,0,59.887,23.8Zm-1.478,3.755c-.434.43-1.349.716-1.494-.574s-.193-2.2-.193-2.2-1.927-3.394-2.65-3.442-5.831,3.442-7.18,4.924c-1.165,1.279-1.4,1.194-1.4,3.441,0,1.7.221,8.1.1,13h0l-8.147,2.15a64.981,64.981,0,0,1-7.806,1.769l-1.012-5.784h0l-.039-.007h0l-.034,0-.049-.006h0l-2.57-13.079s-3.807-1.433-5.2-1.816a3.766,3.766,0,0,0-4.048.622,5.017,5.017,0,0,0-1.735,3.824,6.783,6.783,0,0,1,.482,1.434c.048.477-1.205.43-2.024.43s-.916-1.433-.289-3.107a23.371,23.371,0,0,1,1.927-3.681,11.809,11.809,0,0,1,2.072-2.868s.145-.334,1.253-.239,7.277.43,7.277.43l.053-2.257a145.479,145.479,0,0,1,20.246-1.325c-.011.6-.029,1.208-.058,1.813a22.79,22.79,0,0,1,8.144-1.96.919.919,0,0,1,.771.382c.337.43,2.409,2.964,2.65,3.347a27.62,27.62,0,0,1,1.831,3.011A6.188,6.188,0,0,1,58.409,27.557Z"/><path fill="#f06351" d="M56.458,21.5c.474.593.887,1.12.987,1.279a27.62,27.62,0,0,1,1.831,3.011,6.188,6.188,0,0,1-.867,1.769c-.434.43-1.349.716-1.494-.574s-.193-2.2-.193-2.2-1.927-3.394-2.65-3.442-5.831,3.442-7.18,4.924c-1.165,1.279-1.4,1.194-1.4,3.441,0,1.49.17,6.6.129,11.135,1.809.207,4.467.7,5.268,1.867,0,0-.289-7.122,7.807-3.394,0,0,.289-9.7,11.47-7.217A43.706,43.706,0,0,0,56.458,21.5Z"/><path fill="#f06351" d="M45.937,19.195A89.121,89.121,0,0,0,44.529,2.8s-.144-1.29-.867-.239a14.031,14.031,0,0,0-1.205,3.92,71.184,71.184,0,0,0-12.819.334c-.82-2.725-2.217-3.919-2.892-3.632s-.723,3.3-.723,3.3L25.691,20.52A145.479,145.479,0,0,1,45.937,19.195Z"/><path fill="#e55645" d="M45.353,46.736c.126-1.056.2-2.466.239-4.027l-8.147,2.15a64.981,64.981,0,0,1-7.806,1.769L30.746,51.6c.023.108.047.216.07.323a32.8,32.8,0,0,0,4.769,2.534,42.653,42.653,0,0,0,6.871-4.1l0,.062A15.189,15.189,0,0,0,45.353,46.736Z"/><path d="M32,16.084c-.046-.09,1.026.678,1.412.917s.612.422.612.589-.265.334-.627.334-.915-.119-.963-.263c0,0,.6-.024.939-.024h.29A8.25,8.25,0,0,1,32,16.084Z"/><path d="M39.5,16.2s-1.052,1.269-1.091,1.327-.166.339.186.291a7.99,7.99,0,0,0,1.223-.281c.108-.059.07-.2-.117-.175-.206.022-.685.048-.989.106l.845-1.256S39.586,16.092,39.5,16.2Z"/><path d="M36.358,22.263a2.311,2.311,0,0,0,1.093-1c.281-.655.037-.909-.442-.974a2.472,2.472,0,0,0-1.744.337c-.4.368-.344.726-.054.95A5.021,5.021,0,0,0,36.358,22.263Z"/><path fill="#f06351" d="M35.952,23.509a1.964,1.964,0,0,1-.461.591,1.74,1.74,0,0,1-1.021.385,2.176,2.176,0,0,1-1.457-.443,2.084,2.084,0,0,1-.535-.439.948.948,0,0,0-.358-.252s.751,4.082,2.576,4.728,2.152-.747,2.209-1.129a5.533,5.533,0,0,0-.823-3.21C36.067,23.436,36.051,23.639,35.952,23.509Z"/><path d="M34.3,24.636h-.016a3.474,3.474,0,0,1-2.342-1.412.142.142,0,0,1,.032-.2.145.145,0,0,1,.2.032,3.243,3.243,0,0,0,2.112,1.294H34.3a2.1,2.1,0,0,0,1.634-.986l.143-.187.1.212c0,.007.374.752.992.791.5.031,1.057-.41,1.622-1.273a.146.146,0,0,1,.2-.043.143.143,0,0,1,.043.2c-.636.97-1.27,1.441-1.885,1.4a1.55,1.55,0,0,1-1.121-.761A2.265,2.265,0,0,1,34.3,24.636Z"/><ellipse fill="#fdc305" cx="3.75" cy="3.72" rx="3.75" ry="3.72" transform="translate(32.507 30.549)"/><path fill="#111111" d="M41.235,31.25l-3.133,1.3,1.149-5.59-7.5,9.683,3.133-1.3-1.149,5.59Zm-7.388,3.792,4.131-5.365-.807,3.988,1.967-.815-4.131,5.365.807-3.988Z"/><ellipse fill="#111111" cx="1.123" cy="1.114" rx="1.123" ry="1.114" transform="translate(31.315 31.364)"/><ellipse fill="#111111" cx="0.794" cy="0.788" rx="0.794" ry="0.788" transform="translate(38.166 36.047)"/><ellipse fill="#111111" cx="0.348" cy="0.345" rx="0.348" ry="0.345" transform="translate(39.576 34.768)"/><path fill="#f06351" d="M45.879,20.989a58.174,58.174,0,0,0-5.084,5.17,31.686,31.686,0,0,1-5.313,4.855c-.217-.525-1.627-1.5-1.627-1.5s-3.144-2.131-5.2-3.807a33.031,33.031,0,0,1-3.138-3L23.5,22.6a22.643,22.643,0,0,0,12.02,8.767c.867-.14,3.289-1.852,5.1-3.249a57.455,57.455,0,0,0,5.963-5.868,6.03,6.03,0,0,0,1.141-1.962C46.6,20.666,45.879,20.989,45.879,20.989Z"/><path fill="#fdc305" d="M65.221,3.47l-8.455,9.368-1.219-1.981L63.7,0Z"/><path fill="#fdc305" d="M62.648,17.119,68.2,13.04l-.789-3.7-5.4,4.774Z"/><path fill="#fdc305" d="M59.927,48.968l6.129,3.16,3.01-2.327-6.694-2.723Z"/><path fill="#fdc305" d="M1.954,5.927,5.018,2.593l9.3,8.926-1.226,2.258Z"/><path fill="#fdc305" d="M7.382,16.152l-4.7-3.1-2.4,3.829L5.43,19.259Z"/><path fill="#fdc305" d="M13.908,52.127,9.36,55.449,12.166,59l4.019-3.991Z"/><path fill="#f06351" d="M25.927,27.747s-3.807-1.433-5.2-1.816a3.766,3.766,0,0,0-4.048.622,5.017,5.017,0,0,0-1.735,3.824,6.783,6.783,0,0,1,.482,1.434c.048.477-1.205.43-2.024.43s-.916-1.433-.289-3.107a23.371,23.371,0,0,1,1.927-3.681C9.59,28.273,0,34.774,0,34.774a46.291,46.291,0,0,1,8.192.239c5.253.526,4.964,4.637,4.964,4.637a38.449,38.449,0,0,1,5.638-1.1c2.12-.143,2.265,2.1,2.265,2.1l.53,3.824a18.7,18.7,0,0,1,2.65-2.342,6.111,6.111,0,0,1,4.386-1.291h0Z"/><path fill="#111111" d="M85.661,41.7a8.2,8.2,0,0,1-1.4-5.148V29.1a8.288,8.288,0,0,1,1.385-5.2q1.385-1.759,4.751-1.76,3.209,0,4.543,1.553a6.656,6.656,0,0,1,1.333,4.456V29.9H92.133V27.971a9.849,9.849,0,0,0-.091-1.49,1.657,1.657,0,0,0-.466-.937,1.581,1.581,0,0,0-1.152-.372,1.468,1.468,0,0,0-1.5.745,5.5,5.5,0,0,0-.337,2.182v9.449a4.753,4.753,0,0,0,.389,2.183,1.5,1.5,0,0,0,1.449.719,1.348,1.348,0,0,0,1.4-.732,5.821,5.821,0,0,0,.311-2.17V35.52h4.142v1.72a7.155,7.155,0,0,1-1.32,4.609Q93.634,43.481,90.4,43.48,87.059,43.48,85.661,41.7Z"/><path fill="#111111" d="M101.919,22.4h4.737L110.7,43.2H106.76l-.777-4.571H102.67l-.8,4.571H97.854Zm3.65,13.609L104.3,27.637l-1.242,8.371Z"/><path fill="#111111" d="M113.723,25.531h-3.236V22.4H121.2v3.132h-3.184V43.2h-4.3Z"/>

<path fill="#444444" d="M129.618,22.4h8.128v2.157h-5.2v6.881h4.22v2.054h-4.22v7.627H137.8V43.2h-8.18Z"/>

<path fill="#444444" d="M140.155,22.4h1.993L148.1,36.213V22.4h2.434V43.2h-1.864L142.64,29V43.2h-2.485Z"/>

<path fill="#444444" d="M153.823,22.4h8.127v2.157h-5.2v6.881h4.22v2.054h-4.22v7.627H162V43.2h-8.179Z"/>

<path fill="#444444" d="M164.36,22.4h4.219a7,7,0,0,1,4.672,1.3,5.334,5.334,0,0,1,1.489,4.225q0,4.005-2.59,4.852L175.127,43.2h-2.821l-2.744-9.758h-2.279V43.2H164.36ZM168.4,31.36a3.961,3.961,0,0,0,2.7-.744,3.564,3.564,0,0,0,.816-2.7,5.744,5.744,0,0,0-.285-2.016,1.944,1.944,0,0,0-1.009-1.079,4.872,4.872,0,0,0-2.045-.346h-1.3V31.36Z"/>

<path fill="#444444" d="M178.674,41.67a9.146,9.146,0,0,1-1.268-5.3V29.409a13.126,13.126,0,0,1,.5-3.967,4.449,4.449,0,0,1,1.735-2.389,5.954,5.954,0,0,1,3.378-.834,5.3,5.3,0,0,1,4.181,1.463,6.865,6.865,0,0,1,1.281,4.6v.771h-2.744v-.642a11.218,11.218,0,0,0-.18-2.3,1.948,1.948,0,0,0-.764-1.22,3,3,0,0,0-1.722-.411,2.291,2.291,0,0,0-2.575,2.028,14.259,14.259,0,0,0-.169,2.465v7.7a7.429,7.429,0,0,0,.583,3.428,2.337,2.337,0,0,0,2.239,1.04,2.314,2.314,0,0,0,2.24-1.13,8.046,8.046,0,0,0,.608-3.62V34.955h-2.666V32.9h5.306V43.2H186.8l-.285-2.388a3.686,3.686,0,0,1-3.728,2.644A4.7,4.7,0,0,1,178.674,41.67Z"/>

<path fill="#444444" d="M194.7,35.854,190.169,22.4h2.718l3.21,10.04,3.159-10.04H202L197.5,35.854V43.2h-2.8Z"/>

</svg>
