<svg xmlns="http://www.w3.org/2000/svg" width="101" height="18" viewBox="0 0 101 18"><defs></defs><path fill="#111111" d="M1.23,16.5A6.684,6.684,0,0,1,0,12.166V5.856A6.754,6.754,0,0,1,1.219,1.48Q2.437,0,5.385,0,8.2,0,9.373,1.319a5.43,5.43,0,0,1,1.175,3.737V6.569H6.67V4.819a4.263,4.263,0,0,0-.222-1.556q-.222-.54-1.063-.54A1.1,1.1,0,0,0,4.276,3.3a3.854,3.854,0,0,0-.265,1.587v8.233A3.611,3.611,0,0,0,4.288,14.7a1.106,1.106,0,0,0,1.1.551A1.015,1.015,0,0,0,6.438,14.7a4.253,4.253,0,0,0,.232-1.588V11.28h3.878v1.512a5.719,5.719,0,0,1-1.175,3.836Q8.2,18,5.385,18,2.46,18,1.23,16.5Z"/><path fill="#111111" d="M15.272.238h4.518l3.348,17.5H19.481l-.6-3.694H16.247l-.622,3.694H11.882Zm3.233,11.5-.952-6.827L16.6,11.733Z"/><path fill="#111111" d="M25.879,3.112h-2.7V.238h9.373V3.112H29.868V17.74H25.879Z"/><path fill="#111111" d="M39.728.238h6.957V2.053H42.232V7.845h3.612V9.573H42.232v6.417h4.5v1.75h-7Z"/><path fill="#111111" d="M48.729.238h1.706l5.1,11.626V.238h2.082v17.5H56.02L50.856,5.791V17.74H48.729Z"/><path fill="#111111" d="M60.109.238h6.958V2.053H62.613V7.845h3.612V9.573H62.613v6.417h4.5v1.75h-7Z"/><path fill="#111111" d="M69.111.238h3.611a6.067,6.067,0,0,1,4,1.091A4.448,4.448,0,0,1,78,4.884q0,3.372-2.216,4.084l2.548,8.773H75.913L73.565,9.529H71.614V17.74h-2.5Zm3.456,7.541a3.441,3.441,0,0,0,2.315-.626,2.97,2.97,0,0,0,.7-2.269,4.757,4.757,0,0,0-.244-1.7,1.646,1.646,0,0,0-.863-.908,4.233,4.233,0,0,0-1.752-.292H71.614v5.79Z"/><path fill="#111111" d="M81.213,16.455a7.584,7.584,0,0,1-1.086-4.462V6.138A10.817,10.817,0,0,1,80.56,2.8,3.734,3.734,0,0,1,82.045.789a5.159,5.159,0,0,1,2.891-.7,4.578,4.578,0,0,1,3.579,1.231,5.71,5.71,0,0,1,1.1,3.868v.648h-2.35V5.295a9.3,9.3,0,0,0-.155-1.935,1.632,1.632,0,0,0-.654-1.025,2.583,2.583,0,0,0-1.473-.346,2.244,2.244,0,0,0-1.552.465A2.147,2.147,0,0,0,82.775,3.7a11.945,11.945,0,0,0-.144,2.075v6.481a6.181,6.181,0,0,0,.5,2.885,2.014,2.014,0,0,0,1.917.875,1.989,1.989,0,0,0,1.917-.95,6.668,6.668,0,0,0,.521-3.046V10.8H85.2V9.076h4.542V17.74H88.171l-.244-2.008a3.152,3.152,0,0,1-3.19,2.225A4.05,4.05,0,0,1,81.213,16.455Z"/><path fill="#111111" d="M94.75,11.561,90.873.238H93.2l2.747,8.45,2.7-8.45H101L97.144,11.561v6.18H94.75Z"/></svg>