<?xml version="1.0" encoding="utf-8"?>
<!-- Generator: Adobe Illustrator 21.0.0, SVG Export Plug-In . SVG Version: 6.00 Build 0)  -->
<svg version="1.1" id="Слой_1" xmlns="http://www.w3.org/2000/svg" xmlns:xlink="http://www.w3.org/1999/xlink" x="0px" y="0px"
	 width="196px" height="38px" viewBox="0 0 196 38" style="enable-background:new 0 0 196 38;" xml:space="preserve">
<style type="text/css">
	.st0{fill:#FDC305;}
	.st1{fill:#F06351;}
	.st2{fill:#111111;}
</style>
<g transform="translate(0 0)">
	<path class="st0" d="M6,20.9l0.1-2.3c6.6-0.9,13.3-1.4,20-1.3c0,0.6,0,1.2-0.1,1.8c1.9-0.9,3.9-1.5,6-1.8
		c-2.3-6.5-8.5-10.9-15.5-10.9C8.3,6.4,1.4,12.5,0.2,20.6C2.3,20.7,6,20.9,6,20.9z"/>
	<path class="st0" d="M27,24.5c-1.1,1.3-1.4,1.2-1.4,3.5c0,0.9,0,4.9,0,9.3c4.6-3.2,7.4-8.4,7.4-14c0-1-0.1-2.1-0.3-3.1
		C30.7,21.3,28.7,22.8,27,24.5z"/>
	<path class="st0" d="M6.3,26c0,0-3.8-1.5-5.1-1.8C0.8,24,0.4,23.9,0,23.9C0.2,29.7,3.5,35.1,8.6,38L6.3,26z"/>
	<path class="st1" d="M26,17.3c0-5.6-0.4-11.1-1.4-16.6c0,0-0.1-1.3-0.9-0.2c-0.6,1.3-1,2.6-1.2,4C18.4,4.1,14.2,4.2,10,4.7
		C9.2,2,7.8,0.8,7.1,1S6.4,4.4,6.4,4.4L6.1,18.6C12.7,17.7,19.4,17.3,26,17.3z"/>
	<path d="M12.3,14.1c0-0.1,1,0.7,1.4,0.9s0.6,0.4,0.6,0.6S14,16,13.7,16s-0.9-0.1-1-0.3c0,0,0.6,0,0.9,0h0.3
		C13.3,15.3,12.8,14.7,12.3,14.1z"/>
	<path d="M19.7,14.3c0,0-1,1.3-1.1,1.3s-0.2,0.3,0.2,0.3c0.4-0.1,0.8-0.2,1.2-0.3c0.1-0.1,0.1-0.2-0.1-0.2c-0.2,0-0.7,0-1,0.1
		L19.7,14.3C19.8,14.3,19.8,14.2,19.7,14.3z"/>
	<path d="M16.6,20.4c0.5-0.2,0.8-0.6,1.1-1c0.3-0.7,0-0.9-0.4-1c-0.6-0.1-1.2,0-1.7,0.3c-0.4,0.4-0.3,0.7-0.1,1
		C15.8,20,16.2,20.2,16.6,20.4z"/>
	<path class="st1" d="M16.2,21.7c-0.1,0.2-0.3,0.4-0.5,0.6c-0.3,0.2-0.6,0.4-1,0.4c-0.5,0-1-0.1-1.4-0.5c-0.2-0.1-0.4-0.3-0.5-0.4
		c-0.1-0.1-0.2-0.2-0.4-0.3c0,0,0.7,4.1,2.5,4.8s2.1-0.8,2.2-1.1c0.1-1.1-0.2-2.3-0.8-3.3C16.3,21.6,16.3,21.8,16.2,21.7z"/>
	<path d="M14.6,22.8L14.6,22.8c-1-0.1-1.8-0.7-2.3-1.4c0-0.1,0-0.2,0-0.2c0.1,0,0.2,0,0.2,0c0,0,0,0,0,0c0.5,0.7,1.2,1.2,2.1,1.3h0
		c0.7-0.1,1.3-0.4,1.6-1l0.1-0.2l0.1,0.2c0,0,0.4,0.8,1,0.8c0.5,0,1-0.4,1.6-1.3c0-0.1,0.1-0.1,0.2,0c0,0,0,0,0,0
		c0.1,0,0.1,0.1,0,0.2c-0.6,1-1.3,1.5-1.9,1.4c-0.5-0.1-0.9-0.4-1.1-0.8C15.9,22.4,15.3,22.8,14.6,22.8z"/>
	<path class="st1" d="M26,19.1c-1.8,1.6-3.5,3.4-5,5.2c-1.6,1.8-3.3,3.5-5.2,4.9c-0.2-0.5-1.6-1.5-1.6-1.5S11,25.6,9,23.9
		c-1.1-0.9-2.1-2-3.1-3l-2-0.1c2.8,4.2,7,7.4,11.9,8.9c0.9-0.1,3.2-1.9,5-3.3c2.1-1.8,4.1-3.8,5.9-6c0.5-0.6,0.9-1.3,1.1-2
		C26.7,18.8,26,19.1,26,19.1z"/>
</g>
<g>
	<path class="st2" d="M96.2,29.5c-0.9-1.3-1.3-2.8-1.2-4.3v-6.3c-0.1-1.6,0.3-3.1,1.2-4.4c0.8-1,2.2-1.5,4.2-1.5
		c1.9,0,3.2,0.4,4,1.3c0.8,1.1,1.3,2.4,1.2,3.7v1.5h-3.9v-1.8c0-0.5-0.1-1.1-0.2-1.6c-0.1-0.4-0.5-0.5-1.1-0.5
		c-0.5-0.1-0.9,0.2-1.1,0.6c-0.2,0.5-0.3,1-0.3,1.6v8.2c0,0.5,0.1,1.1,0.3,1.6c0.2,0.4,0.7,0.6,1.1,0.6c0.4,0.1,0.9-0.2,1.1-0.6
		c0.2-0.5,0.3-1,0.2-1.6v-1.8h3.9v1.5c0.1,1.4-0.3,2.7-1.2,3.8c-0.8,0.9-2.1,1.4-4,1.4C98.4,31,97.1,30.5,96.2,29.5z"/>
	<path class="st2" d="M110.3,13.2h4.5l3.3,17.5h-3.7l-0.6-3.7h-2.6l-0.6,3.7h-3.7L110.3,13.2z M113.5,24.7l-1-6.8l-1,6.8L113.5,24.7
		z"/>
	<path class="st2" d="M120.9,16.1h-2.7v-2.9h9.4v2.9h-2.7v14.6h-4V16.1z"/>
	<path class="st2" d="M134.7,13.2h7v1.8h-4.5v5.8h3.6v1.7h-3.6V29h4.5v1.8h-7L134.7,13.2z"/>
	<path class="st2" d="M143.7,13.2h1.7l5.1,11.6V13.2h2.1v17.5H151l-5.2-11.9v11.9h-2.1V13.2z"/>
	<path class="st2" d="M155.1,13.2h7v1.8h-4.5v5.8h3.6v1.7h-3.6V29h4.5v1.8h-7L155.1,13.2z"/>
	<path class="st2" d="M164.1,13.2h3.6c1.4-0.1,2.8,0.3,4,1.1c0.9,0.9,1.4,2.2,1.3,3.6c0,2.2-0.7,3.6-2.2,4.1l2.5,8.8h-2.4l-2.3-8.2
		h-2v8.2h-2.5L164.1,13.2z M167.6,20.8c0.8,0.1,1.6-0.1,2.3-0.6c0.5-0.6,0.8-1.4,0.7-2.3c0-0.6-0.1-1.2-0.2-1.7
		c-0.2-0.4-0.5-0.7-0.9-0.9c-0.6-0.2-1.2-0.3-1.8-0.3h-1.1v5.8L167.6,20.8z"/>
	<path class="st2" d="M176.2,29.5c-0.8-1.3-1.2-2.9-1.1-4.5v-5.9c0-1.1,0.1-2.3,0.4-3.3c0.2-0.8,0.8-1.5,1.5-2
		c0.9-0.5,1.9-0.8,2.9-0.7c1.3-0.1,2.6,0.3,3.6,1.2c0.8,1.1,1.2,2.5,1.1,3.9v0.6h-2.3v-0.5c0-0.6,0-1.3-0.2-1.9
		c-0.1-0.4-0.3-0.8-0.7-1c-0.4-0.3-1-0.4-1.5-0.3c-0.6,0-1.1,0.1-1.6,0.5c-0.4,0.3-0.6,0.8-0.7,1.2c-0.1,0.7-0.2,1.4-0.1,2.1v6.5
		c-0.1,1,0.1,2,0.5,2.9c0.4,0.6,1.2,1,1.9,0.9c0.8,0.1,1.5-0.3,1.9-0.9c0.4-1,0.6-2,0.5-3v-1.2h-2.3v-1.7h4.5v8.7h-1.6l-0.2-2
		c-0.4,1.4-1.7,2.3-3.2,2.2C178.4,31.1,177.1,30.5,176.2,29.5z"/>
	<path class="st2" d="M189.8,24.6l-3.9-11.3h2.3l2.7,8.4l2.7-8.4h2.4l-3.9,11.3v6.2h-2.4V24.6z"/>
</g>
</svg>
