
<svg version="1.1" id="Слой_1" xmlns="http://www.w3.org/2000/svg" xmlns:xlink="http://www.w3.org/1999/xlink" x="0px" y="0px"
	 width="20px" height="20px" viewBox="0 0 20 20" style="enable-background:new 0 0 20 20;" xml:space="preserve">
<style type="text/css">
	.st0{fill:#222222;}
</style>
<g transform="translate(-266.995 -964.994)">
	<path class="st0" d="M274.5,985h-4.6c-1.6,0-2.9-1.3-2.9-2.9c0-0.1,0-0.2,0-0.2v-14c0.1-1.7,1.4-3,3.1-2.9h4.4
		c0.3,0,0.6,0.3,0.7,0.6v6.3c0,0.3-0.3,0.6-0.6,0.6h-4.4c0-0.7,0.5-1.2,1.2-1.2h2.4v-5h-3.9c-1,0-1.7,0.8-1.7,1.8v14.1
		c0.1,1,0.9,1.8,1.9,1.7c0,0,0,0,0,0h3.7v-5h-2.5c-0.7,0-1.2-0.5-1.2-1.2h4.4c0.3,0,0.6,0.3,0.6,0.6v6.2c0,0.3-0.2,0.5-0.5,0.5
		C274.6,985,274.6,985,274.5,985z M282.8,977.8l2.1-2.1h-8.5v-1.2h8.5l-2.1-2l0.9-0.9l3.1,3.1c0.2,0.3,0.2,0.6,0,0.9l-3.1,3.1
		L282.8,977.8z"/>
</g>
</svg>
