<svg xmlns="http://www.w3.org/2000/svg" width="20.006" height="20.006" viewBox="0 0 20.006 20.006"><defs></defs><g transform="translate(-266.995 -964.994)"><g transform="translate(267 965)"><path d="M17.945,9.438H9.424v1.2h8.521L15.84,12.751l.9.9,3.108-3.113a.75.75,0,0,0,0-.9L16.742,6.526l-.9.9Z"/><path d="M8.12,19.478V13.253a.647.647,0,0,0-.6-.6H3.108a1.22,1.22,0,0,0,1.2,1.2H6.817v5.02H3.108a1.8,1.8,0,0,1-1.9-1.707V3.113a1.78,1.78,0,0,1,1.7-1.807h3.91v5.02H4.411a1.22,1.22,0,0,0-1.2,1.2H7.619a.647.647,0,0,0,.6-.6V.6a.86.86,0,0,0-.7-.6H3.108A3.015,3.015,0,0,0,0,2.912V16.868A2.9,2.9,0,0,0,2.907,19.98H7.519A.5.5,0,0,0,8.12,19.478Z"/></g><path d="M274.519,984.98h-4.612A2.9,2.9,0,0,1,267,981.868V967.911A3.015,3.015,0,0,1,270.108,965h4.411a.861.861,0,0,1,.7.6v6.326a.647.647,0,0,1-.6.6h-4.412a1.221,1.221,0,0,1,1.2-1.205h2.406V966.3h-3.91a1.78,1.78,0,0,0-1.7,1.807v14.057a1.8,1.8,0,0,0,1.9,1.706h3.709v-5.02h-2.506a1.22,1.22,0,0,1-1.2-1.2h4.411a.647.647,0,0,1,.6.6v6.225a.529.529,0,0,1-.482.521A.373.373,0,0,1,274.519,984.98Zm8.321-7.229,2.105-2.109h-8.521v-1.2h8.521l-2.105-2.009.9-.9,3.108,3.113a.75.75,0,0,1,0,.9l-3.108,3.112Z"/></g></svg>
