<svg xmlns="http://www.w3.org/2000/svg" xmlns:xlink="http://www.w3.org/1999/xlink" width="268" height="112" viewBox="0 0 268 112"><defs><style>.a{fill:none;}.b{clip-path:url(#a);}</style><clipPath id="a"><rect class="a" width="268" height="112" transform="translate(0 0.086)"/></clipPath></defs><g transform="translate(-442 -1487)"><g class="b" transform="translate(442 1486.914)"><path d="M246.2,11.609a30.414,30.414,0,0,1,9-9.207c2-1.4,3.2-1.4,4.4,1.2,1.6,3.8,3,7.806,1.8,12.009a4.584,4.584,0,0,0,.8,4.2c1.2,1.6,2.2,3.2,3.2,4.6,2.6,3.8,3.6,7.806,1.8,12.41a10.871,10.871,0,0,0-.4,6.2,15.172,15.172,0,0,1,0,6c-.6,3.2-2.2,5.4-5.4,6.4a10.416,10.416,0,0,0-6.4,4,2.1,2.1,0,0,1-1.8,1c-2.4.4-8.4-5-8.4-7.406v-1.2c.2-7.206-.2-7.806-6.8-10.808a8.788,8.788,0,0,1-3.6-2.4c-1.2-1.6-2.8-1.4-4.6-.8-1.6.8-2.8,1.8-2.6,3.8a88.417,88.417,0,0,1,.6,14.611,3.773,3.773,0,0,0,.4,1.6c6.2,9.007,8.6,19.615,11.6,29.823,2.4,7.806,6.8,12.009,14.8,12.61a24.99,24.99,0,0,1,3.8.6c3.6.6,5.8,3,6.8,6.4,1.4,4.2.6,5.2-3.6,5.2h-13a6.485,6.485,0,0,1-4.6-1.6c-2-2-4.4-2.8-6.8-4-2.6-1.2-5.2-2.6-6.8-5.2-2.2-3.4-5.2-6.2-8-9.007-5.6-5.8-11.6-11.409-16.8-17.413-3.8-4.4-6.4-9.207-6.4-15.212,0-1.8-.4-2.6-2.4-1.8a3.857,3.857,0,0,1-2,.6c-5.6,0-8.4,3.4-10.4,8.406-1.8,4.2-4.2,8.206-6.4,12.41a20.806,20.806,0,0,0-2,8.406c0,4.8,1.2,6.4,5.6,8.006,2.8,1,5.4,2,6.8,4.8,1.6,3.2,1.2,4-2.2,4.2H172.6a3.761,3.761,0,0,1-3.8-2.2l-3.6-6c-2-3.4-2.8-6.805-1.4-10.808,1.2-3.4.6-7.206.2-10.608-.8-5.2,0-9.808,3.4-14.011,1.2-1.4,1.2-2-.8-2.4A100.076,100.076,0,0,1,143,50.839a.2.2,0,0,1-.2-.2c-6.4-2.4-7.6-2-9.4,4.6-1.6,5.6-3.2,11.209-4.4,17.013-1.4,6.4.2,12.41,2.2,18.414.8,2.4,3.2,2.2,5,2.8,4,1.2,7.4,2.8,9,7.005,1.4,3.2,1.2,3.6-2.2,3.6s-6.8-.2-10.4,0c-3.2.2-5.6-1-8.4-2.8-9.6-6.4-12.4-16.212-13.2-26.821-.4-6.605-4-11.809-8.2-16.813-.8-1-1.6-1.4-2.8-.6-4.2,2.6-9,4.2-13.4,6-9.6,3.6-18,9.207-24.4,17.614A21.277,21.277,0,0,0,57.8,90.87c-.6,3.6.4,5.2,4,6.2,3.8,1.2,5.4,3,5.8,6.805.2,1.6-.4,2.4-2,2.4H49.4a3.3,3.3,0,0,1-2.6-1.6A17.137,17.137,0,0,1,43,93.672a101.355,101.355,0,0,1,1.8-20.616c.8-4.2,2.8-7.606,6.8-9.607,11.8-5.6,18-16.212,23.6-27.221,1.2-2.2.2-2.6-1.8-2.4-5.8.6-10.8,3.2-15.4,6.4A141.262,141.262,0,0,0,41.4,54.442c-5.8,5.4-12.4,9.207-20.6,9.808C6.2,65.05-.6,56.844,0,43.634A19.41,19.41,0,0,1,4.8,31.424c2.4-2.6,5.2-4,9-3,3,.8,3.8,2.4,2.6,5.4-.6,1.2-1.4,2.2-2,3.4a15.007,15.007,0,0,0-2,4c-2.2,6,.8,10.208,7,10.808,6.6.6,12-2.2,17-6.2a89.917,89.917,0,0,0,16-16.613c7.4-9.607,17-14.611,28.8-16.212,4.6-.6,8.6-2.6,13-3.8a82.954,82.954,0,0,1,25.4-3.6,26.052,26.052,0,0,0,11.6-2.2c9.8-4,20-4,30.2-2,8,1.6,16,3.6,23.8,5.6a33.143,33.143,0,0,0,14-.4c8.8-2,17.8-3.8,26.8-4A36.3,36.3,0,0,1,243.2,6C247.2,7.806,247.2,7.806,246.2,11.609Z"/></g><path d="M688.006,1599a6.4,6.4,0,0,1-2.006-1.2c-2-2-4.4-2.8-6.8-4-2.6-1.2-5.2-2.6-6.8-5.2-2.2-3.4-5.2-6.2-8-9.007-5.6-5.8-11.6-11.408-16.8-17.413-3.8-4.4-6.4-9.207-6.4-15.212,0-1.8-.4-2.6-2.4-1.8a3.865,3.865,0,0,1-2,.6c-5.6,0-8.4,3.4-10.4,8.406-1.8,4.2-4.2,8.206-6.4,12.41a20.8,20.8,0,0,0-2,8.406c0,4.8,1.2,6.405,5.6,8.006,2.8,1,5.4,2,6.8,4.8,1.6,3.2,1.2,4-2.2,4.2H614.6a3.761,3.761,0,0,1-3.8-2.2l-3.6-6c-2-3.4-2.8-6.8-1.4-10.808,1.2-3.4.6-7.205.2-10.608-.8-5.2,0-9.807,3.4-14.01,1.2-1.4,1.2-2-.8-2.4a100.068,100.068,0,0,1-23.6-8.206.2.2,0,0,1-.2-.2c-6.4-2.4-7.6-2-9.4,4.6-1.6,5.6-3.2,11.209-4.4,17.013-1.4,6.405.2,12.409,2.2,18.414.8,2.4,3.2,2.2,5,2.8,4,1.2,7.4,2.8,9,7.006,1.4,3.2,1.2,3.6-2.2,3.6s-6.8-.2-10.4,0c-3.2.2-5.6-1-8.4-2.8-9.6-6.4-12.4-16.213-13.2-26.821-.4-6.605-4-11.809-8.2-16.813-.8-1-1.6-1.4-2.8-.6-4.2,2.6-9,4.2-13.4,6-9.6,3.6-18,9.207-24.4,17.614a21.276,21.276,0,0,0-4.4,10.208c-.6,3.6.4,5.2,4,6.2,3.8,1.2,5.4,3,5.8,6.8.2,1.6-.4,2.4-2,2.4H491.4a3.307,3.307,0,0,1-2.6-1.6,17.136,17.136,0,0,1-3.8-11.009,101.318,101.318,0,0,1,1.8-20.615c.8-4.2,2.8-7.606,6.8-9.608,11.8-5.6,18-16.213,23.6-27.221,1.2-2.2.2-2.6-1.8-2.4-5.8.6-10.8,3.2-15.4,6.4a141.286,141.286,0,0,0-16.6,14.211c-5.8,5.4-12.4,9.207-20.6,9.807-13.417.736-20.247-6.135-20.8-17.507v-3.109a19.408,19.408,0,0,1,4.8-12.209c2.4-2.6,5.2-4,9-3,3,.8,3.8,2.4,2.6,5.4-.6,1.2-1.4,2.2-2,3.4a15,15,0,0,0-2,4c-2.2,6,.8,10.208,7,10.808,6.6.6,12-2.2,17-6.2a89.872,89.872,0,0,0,16-16.613c7.4-9.607,17-14.611,28.8-16.212,4.6-.6,8.6-2.6,13-3.8a82.958,82.958,0,0,1,25.4-3.6,26.058,26.058,0,0,0,11.6-2.2c9.8-4,20-4,30.2-2,8,1.6,16,3.6,23.8,5.6a33.142,33.142,0,0,0,14-.4c8.8-2,17.8-3.8,26.8-4a36.3,36.3,0,0,1,17.2,3.4c4,1.8,4,1.8,3,5.6a30.394,30.394,0,0,1,9-9.207c2-1.4,3.2-1.4,4.4,1.2,1.6,3.8,3,7.806,1.8,12.01a4.585,4.585,0,0,0,.8,4.2c1.2,1.6,2.2,3.2,3.2,4.6a14.724,14.724,0,0,1,2.6,6.225v3.187a13.213,13.213,0,0,1-.8,3,10.876,10.876,0,0,0-.4,6.205,15.151,15.151,0,0,1,0,6c-.6,3.2-2.2,5.4-5.4,6.405a10.419,10.419,0,0,0-6.4,4,2.1,2.1,0,0,1-1.8,1c-2.4.4-8.4-5-8.4-7.406v-1.2c.2-7.205-.2-7.806-6.8-10.808a8.8,8.8,0,0,1-3.6-2.4c-1.2-1.6-2.8-1.4-4.6-.8-1.6.8-2.8,1.8-2.6,3.8a88.4,88.4,0,0,1,.6,14.611,3.763,3.763,0,0,0,.4,1.6c6.2,9.006,8.6,19.615,11.6,29.823,2.4,7.807,6.8,12.01,14.8,12.61a25.028,25.028,0,0,1,3.8.6c3.6.6,5.8,3,6.8,6.405.941,2.825.887,4.2-.523,4.8Z"/></g></svg>