<svg xmlns="http://www.w3.org/2000/svg" width="22.004" height="12" viewBox="0 0 22.004 12"><defs></defs><g transform="translate(-92.998 -3067)"><g transform="translate(93 3067)"><path d="M17.551,12a2.879,2.879,0,0,1-1.521-.481,7.228,7.228,0,0,1-1.308-1.167c-.321-.335-.859-.9-1.061-.9-.2.057-.353.7-.349,1.195a1.314,1.314,0,0,1-.344.923,1.619,1.619,0,0,1-.891.38l-1.412,0a8.135,8.135,0,0,1-5.448-2.3C2.523,7.1.2,2.2.108,1.99A1.057,1.057,0,0,1,.219.862a1.464,1.464,0,0,1,1-.365L4.21.479l.084.006A1.883,1.883,0,0,1,5,.751a1.4,1.4,0,0,1,.459.556A17.186,17.186,0,0,0,6.536,3.35C7.5,4.866,7.927,5.22,8.078,5.3a6.477,6.477,0,0,0,.137-2.186,2.107,2.107,0,0,0-.184-.973.96.96,0,0,0-.571-.224l-.529-.526c-.071-.5.465-.934.842-1.1A6.045,6.045,0,0,1,10.081,0l.52,0a6.451,6.451,0,0,1,1.576.145c1.248.275,1.2,1.317,1.149,2.522-.015.354-.033.762-.033,1.235,0,.115,0,.237-.008.364a3.1,3.1,0,0,0,.068.993,7.007,7.007,0,0,0,1.519-1.89,15.5,15.5,0,0,0,1.112-2.135h0a1.164,1.164,0,0,1,1.183-.72L20.3.5a2.384,2.384,0,0,1,.276-.012c.719,0,1.171.218,1.344.65.2.5.124,1.262-1.726,3.506-.272.329-.512.613-.721.859a5.616,5.616,0,0,0-.907,1.214,5.012,5.012,0,0,0,.918.872,10.748,10.748,0,0,1,2.224,2.34A1.251,1.251,0,0,1,21.9,11.2a1.656,1.656,0,0,1-1.377.75l-2.779.036C17.7,11.995,17.638,12,17.551,12ZM13.66,8.314c.659,0,1.233.6,1.841,1.233a6.627,6.627,0,0,0,1.1.995,1.785,1.785,0,0,0,1.025.314l.076-.007,2.79-.036a1.2,1.2,0,0,0,.393-.1.91.91,0,0,0-.072-.127,9.8,9.8,0,0,0-1.97-2.07C17.972,7.779,17.52,7.4,17.473,6.8c-.048-.613.361-1.1,1.178-2.059.206-.242.443-.521.709-.844A8.043,8.043,0,0,0,20.869,1.65a3.813,3.813,0,0,0-.5-.014l-3.2.022a.365.365,0,0,0-.182.027,15.8,15.8,0,0,1-1.206,2.323c-1.389,2.147-2.042,2.436-2.5,2.437a.811.811,0,0,1-.417-.113c-.736-.433-.706-1.4-.685-2.1,0-.113.007-.225.007-.328,0-.492.019-.919.036-1.286.055-1.28.011-1.289-.278-1.353a5.49,5.49,0,0,0-1.361-.121l-.508,0a9.859,9.859,0,0,0-1.4.075,1.429,1.429,0,0,1,.19.191,2.976,2.976,0,0,1,.441,1.671c.1,1.253.044,2.89-.747,3.284a.969.969,0,0,1-.438.1c-.679,0-1.359-.674-2.511-2.487a17.715,17.715,0,0,1-1.164-2.2A.331.331,0,0,0,4.4,1.709a.84.84,0,0,0-.234-.089l-2.934.019-.052,0c.434.906,2.513,5.02,4.781,7.173a7.137,7.137,0,0,0,4.705,2l1.357,0a.787.787,0,0,0,.2-.076c-.014.014-.008-.04-.008-.074,0-.2.009-1.976,1.157-2.31A1.074,1.074,0,0,1,13.66,8.314Z"/></g><path class="a" d="M109.032,3078.519a7.219,7.219,0,0,1-1.308-1.167c-.321-.335-.859-.9-1.061-.9-.2.057-.354.7-.35,1.194a1.315,1.315,0,0,1-.344.923,1.619,1.619,0,0,1-.891.38l-1.412.005a8.139,8.139,0,0,1-5.449-2.3c-2.695-2.557-5.013-7.46-5.11-7.668a1.058,1.058,0,0,1,.111-1.128,1.466,1.466,0,0,1,1-.365l2.994-.018.084.006a1.881,1.881,0,0,1,.7.266,1.4,1.4,0,0,1,.459.556,17.246,17.246,0,0,0,1.081,2.043c.963,1.516,1.392,1.87,1.544,1.951a6.5,6.5,0,0,0,.137-2.186,2.1,2.1,0,0,0-.185-.973.962.962,0,0,0-.571-.224l-.53-.526c-.071-.5.466-.934.843-1.1a6.059,6.059,0,0,1,2.308-.291l.52,0a6.414,6.414,0,0,1,1.576.146c1.248.274,1.2,1.317,1.149,2.522-.015.354-.033.761-.033,1.235,0,.115,0,.237-.008.364a3.084,3.084,0,0,0,.068.994,7.007,7.007,0,0,0,1.519-1.89,15.5,15.5,0,0,0,1.112-2.135v0a1.166,1.166,0,0,1,1.183-.72l3.135-.018a2.5,2.5,0,0,1,.275-.012c.719,0,1.172.218,1.345.65.2.5.124,1.263-1.726,3.506-.272.329-.513.613-.722.859a5.635,5.635,0,0,0-.907,1.214,4.961,4.961,0,0,0,.918.872,10.74,10.74,0,0,1,2.225,2.34,1.25,1.25,0,0,1,.19,1.277,1.655,1.655,0,0,1-1.377.75l-2.779.036a1.843,1.843,0,0,1-.194.009A2.883,2.883,0,0,1,109.032,3078.519Zm-.529-1.972a6.635,6.635,0,0,0,1.1.995,1.775,1.775,0,0,0,1.025.314l.076-.007,2.791-.036a1.212,1.212,0,0,0,.392-.1.871.871,0,0,0-.072-.127,9.765,9.765,0,0,0-1.971-2.07c-.868-.733-1.319-1.115-1.367-1.708-.048-.613.362-1.1,1.178-2.059.206-.242.444-.521.709-.844a8.034,8.034,0,0,0,1.51-2.251,3.94,3.94,0,0,0-.5-.013l-3.2.021a.365.365,0,0,0-.182.027,15.725,15.725,0,0,1-1.206,2.323c-1.389,2.147-2.042,2.436-2.5,2.437a.813.813,0,0,1-.417-.112c-.736-.434-.706-1.4-.685-2.1,0-.113.007-.225.007-.328,0-.492.019-.919.036-1.286.055-1.28.011-1.289-.278-1.353a5.446,5.446,0,0,0-1.361-.122l-.508,0a9.9,9.9,0,0,0-1.4.075,1.42,1.42,0,0,1,.19.191,2.978,2.978,0,0,1,.441,1.671c.1,1.253.044,2.89-.747,3.284a.967.967,0,0,1-.438.1c-.679,0-1.36-.673-2.512-2.487a17.644,17.644,0,0,1-1.164-2.2.307.307,0,0,0-.055-.071.831.831,0,0,0-.234-.089l-2.934.019-.052,0c.434.906,2.513,5.02,4.781,7.173a7.142,7.142,0,0,0,4.706,2l1.357,0a.834.834,0,0,0,.2-.075c-.011,0-.005-.044-.005-.076,0-.2.009-1.976,1.157-2.31a1.068,1.068,0,0,1,.291-.04C107.321,3075.314,107.9,3075.913,108.5,3076.547Z"/></g></svg>
